<svg xmlns="http://www.w3.org/2000/svg" fill="none" viewBox="-0.5 -0.5 16 16" id="Add-Circle--Streamline-Solar.svg" height="16" width="16"><desc>Add Circle Streamline Icon: https://streamlinehq.com</desc><g id="Bold Duotone/Essentional UI/Add Circle"><path id="Vector" fill="#737374" d="M13.75 7.5c0 3.45175 -2.79825 6.25 -6.25 6.25 -3.45178125 0 -6.25 -2.79825 -6.25 -6.25C1.25 4.04821875 4.04821875 1.25 7.5 1.25c3.45175 0 6.25 2.79821875 6.25 6.25Z" stroke-width="1"></path><path id="Vector_2" fill="#000000" d="M7.96875 5.625c0 -0.25888125 -0.20987499999999998 -0.46875 -0.46875 -0.46875s-0.46875 0.20986875 -0.46875 0.46875v1.40625H5.625c-0.25888125 0 -0.46875 0.20987499999999998 -0.46875 0.46875s0.20986875 0.46875 0.46875 0.46875h1.40625V9.375c0 0.258875 0.20987499999999998 0.46875 0.46875 0.46875s0.46875 -0.20987499999999998 0.46875 -0.46875v-1.40625H9.375c0.258875 0 0.46875 -0.20987499999999998 0.46875 -0.46875s-0.20987499999999998 -0.46875 -0.46875 -0.46875h-1.40625V5.625Z" stroke-width="1"></path></g></svg>