<svg xmlns="http://www.w3.org/2000/svg" fill="none" viewBox="-0.5 -0.5 16 16" id="Close-Circle--Streamline-Solar.svg" height="16" width="16"><desc>Close Circle Streamline Icon: https://streamlinehq.com</desc><g id="Bold Duotone/Essentional UI/Close Circle"><path id="Vector" fill="#737374" d="M13.75 7.5c0 3.45175 -2.79825 6.25 -6.25 6.25 -3.45178125 0 -6.25 -2.79825 -6.25 -6.25C1.25 4.04821875 4.04821875 1.25 7.5 1.25c3.45175 0 6.25 2.79821875 6.25 6.25Z" stroke-width="1"></path><path id="Vector_2" fill="#000000" d="M5.60604375 5.60604375c0.18305624999999998 -0.18305624999999998 0.47985625 -0.18305624999999998 0.66289375 0L7.5 6.8371249999999995l1.2310625 -1.23106875c0.1830625 -0.18305624999999998 0.47981250000000003 -0.18305624999999998 0.662875 0 0.1830625 0.18305624999999998 0.1830625 0.47985625 0 0.66294375L8.1629375 7.5l1.231 1.231c0.1830625 0.1830625 0.1830625 0.47987500000000005 0 0.6629375 -0.1830625 0.1830625 -0.47987500000000005 0.1830625 -0.6629375 0L7.5 8.1629375l-1.231 1.231c-0.1830875 0.1830625 -0.47988749999999997 0.1830625 -0.66294375 0 -0.18305624999999998 -0.1830625 -0.18305624999999998 -0.47981250000000003 0 -0.662875L6.8371249999999995 7.5l-1.23108125 -1.2310625c-0.18305624999999998 -0.18303750000000002 -0.18305624999999998 -0.4798375 0 -0.66289375Z" stroke-width="1"></path></g></svg>